<?xml version="1.0" standalone="no"?><!DOCTYPE svg PUBLIC "-//W3C//DTD SVG 1.1//EN" "http://www.w3.org/Graphics/SVG/1.1/DTD/svg11.dtd"><svg t="1660354466276" class="icon" viewBox="0 0 1024 1024" version="1.1" xmlns="http://www.w3.org/2000/svg" p-id="1395" xmlns:xlink="http://www.w3.org/1999/xlink" width="200" height="200"><defs><style type="text/css">@font-face { font-family: feedback-iconfont; src: url("//at.alicdn.com/t/font_1031158_u69w8yhxdu.woff2?t=1630033759944") format("woff2"), url("//at.alicdn.com/t/font_1031158_u69w8yhxdu.woff?t=1630033759944") format("woff"), url("//at.alicdn.com/t/font_1031158_u69w8yhxdu.ttf?t=1630033759944") format("truetype"); }
</style></defs><path d="M567.466667 634.325333v234.666667a21.333333 21.333333 0 0 1-21.333334 21.333333h-42.666666a21.333333 21.333333 0 0 1-21.333334-21.333333v-234.666667H413.866667a8.533333 8.533333 0 0 1-6.826667-13.653333l110.933333-147.925333a8.533333 8.533333 0 0 1 13.653334 0l110.933333 147.925333a8.533333 8.533333 0 0 1-6.826667 13.653333h-68.266666z" fill="#707070" p-id="1396"></path><path d="M768 725.333333a128 128 0 0 0 38.613333-250.112l-39.850666-12.586666-14.506667-39.253334a256.128 256.128 0 0 0-480.554667 0l-14.464 39.253334-39.850666 12.586666A128.085333 128.085333 0 0 0 256 725.333333a42.666667 42.666667 0 0 1 0 85.333334 213.333333 213.333333 0 0 1-64.341333-416.810667 341.461333 341.461333 0 0 1 640.682666 0A213.418667 213.418667 0 0 1 768 810.666667a42.666667 42.666667 0 0 1 0-85.333334z" fill="#707070" p-id="1397"></path></svg>